<svg width="44" height="44" viewBox="0 0 44 44" fill="none" xmlns="http://www.w3.org/2000/svg">
<g clip-path="url(#clip0_109_9)">
<path d="M22.0072 0.0273438C12.8314 0.0273438 10.1478 0.0368096 9.62613 0.0800823C7.7431 0.236608 6.57136 0.533093 5.29481 1.16866C4.31104 1.65717 3.53517 2.22343 2.76945 3.01721C1.37492 4.46482 0.52975 6.24576 0.223799 8.36274C0.0750493 9.39046 0.0317767 9.60007 0.0229869 14.8496C0.0196062 16.5994 0.0229869 18.9023 0.0229869 21.9913C0.0229869 31.1597 0.0331289 33.8405 0.0770777 34.3612C0.229208 36.1935 0.516566 37.3463 1.12509 38.6073C2.28804 41.0211 4.50914 42.8331 7.12579 43.5093C8.03181 43.7425 9.03249 43.871 10.3171 43.9318C10.8614 43.9555 16.4091 43.9724 21.9602 43.9724C27.5113 43.9724 33.0623 43.9657 33.5931 43.9386C35.0806 43.8686 35.9444 43.7527 36.8994 43.5059C38.1968 43.1732 39.406 42.5612 40.4424 41.7128C41.4789 40.8644 42.3176 39.7999 42.9001 38.5938C43.4968 37.3632 43.7994 36.1664 43.9363 34.4298C43.966 34.0511 43.9785 28.0143 43.9785 21.9855C43.9785 15.9557 43.965 9.93002 43.9353 9.55139C43.7966 7.78667 43.4941 6.60005 42.8781 5.34582C42.3727 4.31911 41.8115 3.55237 40.9968 2.7684C39.5431 1.37961 37.7648 0.534445 35.6455 0.228832C34.6188 0.0804204 34.4143 0.0364716 29.1607 0.0273438H22.0072Z" fill="#FE5B4A"/>
<path d="M22.0072 0.0273438C12.8314 0.0273438 10.1478 0.0368096 9.62613 0.0800823C7.7431 0.236608 6.57136 0.533093 5.29481 1.16866C4.31104 1.65717 3.53517 2.22343 2.76945 3.01721C1.37492 4.46482 0.52975 6.24576 0.223799 8.36274C0.0750493 9.39046 0.0317767 9.60007 0.0229869 14.8496C0.0196062 16.5994 0.0229869 18.9023 0.0229869 21.9913C0.0229869 31.1597 0.0331289 33.8405 0.0770777 34.3612C0.229208 36.1935 0.516566 37.3463 1.12509 38.6073C2.28804 41.0211 4.50914 42.8331 7.12579 43.5093C8.03181 43.7425 9.03249 43.871 10.3171 43.9318C10.8614 43.9555 16.4091 43.9724 21.9602 43.9724C27.5113 43.9724 33.0623 43.9657 33.5931 43.9386C35.0806 43.8686 35.9444 43.7527 36.8994 43.5059C38.1968 43.1732 39.406 42.5612 40.4424 41.7128C41.4789 40.8644 42.3176 39.7999 42.9001 38.5938C43.4968 37.3632 43.7994 36.1664 43.9363 34.4298C43.966 34.0511 43.9785 28.0143 43.9785 21.9855C43.9785 15.9557 43.965 9.93002 43.9353 9.55139C43.7966 7.78667 43.4941 6.60005 42.8781 5.34582C42.3727 4.31911 41.8115 3.55237 40.9968 2.7684C39.5431 1.37961 37.7648 0.534445 35.6455 0.228832C34.6188 0.0804204 34.4143 0.0364716 29.1607 0.0273438H22.0072Z" fill="#FE5B4A"/>
<path d="M21.9978 5.77441C17.5907 5.77441 17.0377 5.79368 15.3068 5.87245C13.5792 5.95156 12.4001 6.22506 11.3683 6.62634C10.301 7.04082 9.39564 7.59525 8.49368 8.49755C7.59104 9.39951 7.03661 10.3049 6.62079 11.3718C6.21848 12.4039 5.94465 13.5834 5.86689 15.3103C5.78982 17.0412 5.76953 17.5946 5.76953 22.0017C5.76953 26.4087 5.78914 26.9601 5.86757 28.691C5.94702 30.4185 6.22051 31.5977 6.62146 32.6295C7.03627 33.6968 7.5907 34.6021 8.493 35.5041C9.39463 36.4067 10.3 36.9625 11.3666 37.377C12.399 37.7783 13.5786 38.0518 15.3057 38.1309C17.0366 38.2096 17.5894 38.2289 21.9961 38.2289C26.4035 38.2289 26.9549 38.2096 28.6858 38.1309C30.4133 38.0518 31.5938 37.7783 32.6263 37.377C33.6932 36.9625 34.5972 36.4067 35.4989 35.5041C36.4015 34.6021 36.9559 33.6968 37.3718 32.6298C37.7707 31.5977 38.0445 30.4182 38.1256 28.6913C38.2034 26.9604 38.2237 26.4087 38.2237 22.0017C38.2237 17.5946 38.2034 17.0415 38.1256 15.3106C38.0445 13.5831 37.7707 12.4039 37.3718 11.3721C36.9559 10.3049 36.4015 9.39951 35.4989 8.49755C34.5962 7.59491 33.6936 7.04048 32.6253 6.62634C31.5908 6.22506 30.4109 5.95156 28.6834 5.87245C26.9525 5.79368 26.4015 5.77441 21.9931 5.77441H21.9978ZM20.5421 8.6987C20.9741 8.69802 21.4562 8.6987 21.9978 8.6987C26.3305 8.6987 26.844 8.71425 28.555 8.79201C30.1371 8.86435 30.9958 9.12872 31.5678 9.35083C32.3251 9.64495 32.865 9.99654 33.4326 10.5645C34.0005 11.1324 34.3521 11.6734 34.6469 12.4306C34.869 13.002 35.1337 13.8607 35.2058 15.4428C35.2835 17.1534 35.3004 17.6673 35.3004 21.9979C35.3004 26.3286 35.2835 26.8424 35.2058 28.5531C35.1334 30.1352 34.869 30.9939 34.6469 31.5653C34.3528 32.3225 34.0005 32.8617 33.4326 33.4294C32.8646 33.9973 32.3254 34.3489 31.5678 34.643C30.9965 34.8661 30.1371 35.1298 28.555 35.2022C26.8443 35.2799 26.3305 35.2968 21.9978 35.2968C17.6648 35.2968 17.1513 35.2799 15.4406 35.2022C13.8585 35.1292 12.9998 34.8648 12.4274 34.6427C11.6702 34.3486 11.1293 33.997 10.5613 33.429C9.99335 32.8611 9.64176 32.3215 9.34696 31.5639C9.12485 30.9926 8.86015 30.1339 8.78814 28.5517C8.71038 26.8411 8.69483 26.3272 8.69483 21.9939C8.69483 17.6605 8.71038 17.1494 8.78814 15.4388C8.86048 13.8566 9.12485 12.9979 9.34696 12.4259C9.64108 11.6686 9.99335 11.1277 10.5613 10.5598C11.1293 9.99181 11.6702 9.64022 12.4274 9.34542C12.9994 9.1223 13.8585 8.85861 15.4406 8.78592C16.9376 8.71831 17.5177 8.69802 20.5421 8.69464V8.6987ZM30.6598 11.3931C30.2746 11.3931 29.8981 11.5073 29.5778 11.7213C29.2576 11.9353 29.008 12.2395 28.8607 12.5953C28.7133 12.9512 28.6748 13.3428 28.75 13.7205C28.8251 14.0983 29.0107 14.4452 29.2831 14.7175C29.5555 14.9898 29.9025 15.1752 30.2803 15.2503C30.6581 15.3254 31.0496 15.2867 31.4054 15.1392C31.7612 14.9917 32.0653 14.742 32.2792 14.4217C32.4931 14.1014 32.6072 13.7249 32.607 13.3397C32.607 12.2646 31.7348 11.3924 30.6598 11.3924V11.3931ZM21.9978 13.6683C17.3957 13.6683 13.6644 17.3995 13.6644 22.0017C13.6644 26.6038 17.3957 30.3333 21.9978 30.3333C26.5999 30.3333 30.3301 26.6038 30.3301 22.0017C30.3301 17.3995 26.5999 13.6683 21.9978 13.6683ZM21.9978 16.5926C24.985 16.5926 27.4069 19.0142 27.4069 22.0017C27.4069 24.9888 24.985 27.4107 21.9978 27.4107C19.0103 27.4107 16.5887 24.9888 16.5887 22.0017C16.5887 19.0142 19.0103 16.5926 21.9978 16.5926Z" fill="black"/>
</g>
<defs>
<clipPath id="clip0_109_9">
<rect width="44" height="44" fill="white"/>
</clipPath>
</defs>
</svg>
